<mxfile host="Electron" modified="2024-01-11T01:22:23.372Z" agent="Mozilla/5.0 (Windows NT 10.0; Win64; x64) AppleWebKit/537.36 (KHTML, like Gecko) draw.io/22.1.2 Chrome/114.0.5735.289 Electron/25.9.4 Safari/537.36" etag="tF4EbEWbmcuiGNmxu0jl" version="22.1.2" type="device">
  <diagram name="Page-1" id="gkLYchG0DpJVVnE0vhXd">
    <mxGraphModel dx="1418" dy="828" grid="1" gridSize="10" guides="1" tooltips="1" connect="1" arrows="1" fold="1" page="1" pageScale="1" pageWidth="827" pageHeight="1169" math="0" shadow="0">
      <root>
        <mxCell id="0" />
        <mxCell id="1" parent="0" />
        <mxCell id="ekKz0f0NeID3Su0TXLTV-51" style="edgeStyle=orthogonalEdgeStyle;rounded=0;orthogonalLoop=1;jettySize=auto;html=1;exitX=1;exitY=0.25;exitDx=0;exitDy=0;entryX=1;entryY=0.75;entryDx=0;entryDy=0;strokeWidth=2;strokeColor=#CCCC00;" parent="1" source="XNHBsryC9wTqJ5zWwKcx-23" target="XNHBsryC9wTqJ5zWwKcx-44" edge="1">
          <mxGeometry relative="1" as="geometry">
            <Array as="points">
              <mxPoint x="208" y="1080" />
              <mxPoint x="208" y="1200" />
            </Array>
          </mxGeometry>
        </mxCell>
        <mxCell id="ekKz0f0NeID3Su0TXLTV-66" style="edgeStyle=orthogonalEdgeStyle;rounded=0;orthogonalLoop=1;jettySize=auto;html=1;exitX=1;exitY=0.5;exitDx=0;exitDy=0;entryX=1;entryY=0.5;entryDx=0;entryDy=0;strokeWidth=2;strokeColor=#FF0000;" parent="1" source="XNHBsryC9wTqJ5zWwKcx-23" target="XNHBsryC9wTqJ5zWwKcx-44" edge="1">
          <mxGeometry relative="1" as="geometry">
            <Array as="points">
              <mxPoint x="188" y="1090" />
              <mxPoint x="188" y="1250" />
            </Array>
          </mxGeometry>
        </mxCell>
        <mxCell id="ekKz0f0NeID3Su0TXLTV-77" style="edgeStyle=orthogonalEdgeStyle;rounded=0;orthogonalLoop=1;jettySize=auto;html=1;exitX=1;exitY=0.75;exitDx=0;exitDy=0;entryX=1;entryY=0.25;entryDx=0;entryDy=0;strokeWidth=2;" parent="1" source="XNHBsryC9wTqJ5zWwKcx-23" target="XNHBsryC9wTqJ5zWwKcx-44" edge="1">
          <mxGeometry relative="1" as="geometry">
            <Array as="points">
              <mxPoint x="168" y="1100" />
              <mxPoint x="168" y="1300" />
            </Array>
          </mxGeometry>
        </mxCell>
        <mxCell id="XNHBsryC9wTqJ5zWwKcx-23" value="MG995R" style="rounded=1;whiteSpace=wrap;html=1;fontSize=14;align=center;flipV=0;flipH=0;direction=east;" parent="1" vertex="1">
          <mxGeometry x="68" y="1070" width="80" height="40" as="geometry" />
        </mxCell>
        <mxCell id="ekKz0f0NeID3Su0TXLTV-112" style="edgeStyle=orthogonalEdgeStyle;rounded=0;orthogonalLoop=1;jettySize=auto;html=1;exitX=0.75;exitY=0;exitDx=0;exitDy=0;entryX=0.5;entryY=0;entryDx=0;entryDy=0;strokeWidth=2;fillColor=#f8cecc;strokeColor=#FF99FF;" parent="1" source="XNHBsryC9wTqJ5zWwKcx-44" target="ekKz0f0NeID3Su0TXLTV-107" edge="1">
          <mxGeometry relative="1" as="geometry">
            <Array as="points">
              <mxPoint x="350" y="1350" />
              <mxPoint x="350" y="1360" />
              <mxPoint x="327" y="1360" />
            </Array>
          </mxGeometry>
        </mxCell>
        <mxCell id="ekKz0f0NeID3Su0TXLTV-113" style="edgeStyle=orthogonalEdgeStyle;rounded=0;orthogonalLoop=1;jettySize=auto;html=1;exitX=0.5;exitY=0;exitDx=0;exitDy=0;entryX=0.5;entryY=0;entryDx=0;entryDy=0;strokeWidth=2;strokeColor=#999999;" parent="1" source="XNHBsryC9wTqJ5zWwKcx-44" target="ekKz0f0NeID3Su0TXLTV-97" edge="1">
          <mxGeometry relative="1" as="geometry">
            <Array as="points">
              <mxPoint x="361" y="1350" />
            </Array>
          </mxGeometry>
        </mxCell>
        <mxCell id="ekKz0f0NeID3Su0TXLTV-114" style="edgeStyle=orthogonalEdgeStyle;rounded=0;orthogonalLoop=1;jettySize=auto;html=1;exitX=0.25;exitY=0;exitDx=0;exitDy=0;entryX=0.5;entryY=0;entryDx=0;entryDy=0;strokeWidth=2;strokeColor=#7EA6E0;" parent="1" source="XNHBsryC9wTqJ5zWwKcx-44" target="ekKz0f0NeID3Su0TXLTV-106" edge="1">
          <mxGeometry relative="1" as="geometry">
            <Array as="points">
              <mxPoint x="370" y="1350" />
              <mxPoint x="370" y="1370" />
              <mxPoint x="395" y="1370" />
            </Array>
          </mxGeometry>
        </mxCell>
        <mxCell id="ekKz0f0NeID3Su0TXLTV-115" style="edgeStyle=orthogonalEdgeStyle;rounded=0;orthogonalLoop=1;jettySize=auto;html=1;exitX=0.25;exitY=0;exitDx=0;exitDy=0;entryX=0.5;entryY=0;entryDx=0;entryDy=0;strokeWidth=2;" parent="1" source="XNHBsryC9wTqJ5zWwKcx-44" target="ekKz0f0NeID3Su0TXLTV-108" edge="1">
          <mxGeometry relative="1" as="geometry">
            <Array as="points">
              <mxPoint x="384" y="1360" />
              <mxPoint x="429" y="1360" />
            </Array>
          </mxGeometry>
        </mxCell>
        <mxCell id="XNHBsryC9wTqJ5zWwKcx-44" value="PCA9685&lt;br&gt;&lt;br&gt;I2C" style="rounded=1;whiteSpace=wrap;html=1;fontSize=14;align=center;direction=west;" parent="1" vertex="1">
          <mxGeometry x="324" y="1150" width="80" height="200" as="geometry" />
        </mxCell>
        <mxCell id="ekKz0f0NeID3Su0TXLTV-149" style="edgeStyle=orthogonalEdgeStyle;rounded=0;orthogonalLoop=1;jettySize=auto;html=1;exitX=0.5;exitY=0;exitDx=0;exitDy=0;entryX=0.5;entryY=1;entryDx=0;entryDy=0;strokeWidth=2;" parent="1" target="ekKz0f0NeID3Su0TXLTV-148" edge="1">
          <mxGeometry relative="1" as="geometry">
            <mxPoint x="562.5" y="1464" as="sourcePoint" />
            <Array as="points">
              <mxPoint x="535" y="1464" />
            </Array>
          </mxGeometry>
        </mxCell>
        <mxCell id="XNHBsryC9wTqJ5zWwKcx-45" value="&lt;font style=&quot;font-size: 18px;&quot;&gt;&lt;br&gt;&lt;br&gt;&lt;br&gt;Jetson Nano&lt;/font&gt;" style="rounded=1;whiteSpace=wrap;html=1;fontSize=14;align=center;verticalAlign=top;" parent="1" vertex="1">
          <mxGeometry x="482.5" y="1454" width="277.5" height="276" as="geometry" />
        </mxCell>
        <mxCell id="XNHBsryC9wTqJ5zWwKcx-72" value="" style="rounded=0;whiteSpace=wrap;html=1;fontSize=14;align=center;" parent="1" vertex="1">
          <mxGeometry x="490" y="1479" width="40" height="221" as="geometry" />
        </mxCell>
        <mxCell id="ekKz0f0NeID3Su0TXLTV-57" style="edgeStyle=orthogonalEdgeStyle;rounded=0;orthogonalLoop=1;jettySize=auto;html=1;exitX=1;exitY=0.5;exitDx=0;exitDy=0;entryX=1;entryY=0.75;entryDx=0;entryDy=0;strokeWidth=2;strokeColor=#CCCC00;" parent="1" source="XNHBsryC9wTqJ5zWwKcx-102" target="XNHBsryC9wTqJ5zWwKcx-44" edge="1">
          <mxGeometry relative="1" as="geometry">
            <Array as="points">
              <mxPoint x="148" y="1320" />
              <mxPoint x="208" y="1320" />
              <mxPoint x="208" y="1200" />
            </Array>
          </mxGeometry>
        </mxCell>
        <mxCell id="ekKz0f0NeID3Su0TXLTV-71" style="edgeStyle=orthogonalEdgeStyle;rounded=0;orthogonalLoop=1;jettySize=auto;html=1;exitX=1;exitY=0.5;exitDx=0;exitDy=0;strokeWidth=2;strokeColor=#FF0000;" parent="1" source="XNHBsryC9wTqJ5zWwKcx-102" target="XNHBsryC9wTqJ5zWwKcx-44" edge="1">
          <mxGeometry relative="1" as="geometry">
            <Array as="points">
              <mxPoint x="188" y="1330" />
              <mxPoint x="188" y="1250" />
            </Array>
          </mxGeometry>
        </mxCell>
        <mxCell id="ekKz0f0NeID3Su0TXLTV-82" style="edgeStyle=orthogonalEdgeStyle;rounded=0;orthogonalLoop=1;jettySize=auto;html=1;exitX=1;exitY=0.75;exitDx=0;exitDy=0;entryX=1;entryY=0.25;entryDx=0;entryDy=0;strokeWidth=2;" parent="1" source="XNHBsryC9wTqJ5zWwKcx-102" target="XNHBsryC9wTqJ5zWwKcx-44" edge="1">
          <mxGeometry relative="1" as="geometry">
            <Array as="points">
              <mxPoint x="168" y="1340" />
              <mxPoint x="168" y="1300" />
            </Array>
          </mxGeometry>
        </mxCell>
        <mxCell id="XNHBsryC9wTqJ5zWwKcx-102" value="MG995R" style="rounded=1;whiteSpace=wrap;html=1;fontSize=14;align=center;flipV=0;flipH=0;direction=east;" parent="1" vertex="1">
          <mxGeometry x="68" y="1310" width="80" height="40" as="geometry" />
        </mxCell>
        <mxCell id="ekKz0f0NeID3Su0TXLTV-53" style="edgeStyle=orthogonalEdgeStyle;rounded=0;orthogonalLoop=1;jettySize=auto;html=1;exitX=1;exitY=0.25;exitDx=0;exitDy=0;entryX=1;entryY=0.75;entryDx=0;entryDy=0;strokeWidth=2;strokeColor=#CCCC00;" parent="1" source="XNHBsryC9wTqJ5zWwKcx-103" target="XNHBsryC9wTqJ5zWwKcx-44" edge="1">
          <mxGeometry relative="1" as="geometry">
            <Array as="points">
              <mxPoint x="208" y="1120" />
              <mxPoint x="208" y="1200" />
            </Array>
          </mxGeometry>
        </mxCell>
        <mxCell id="ekKz0f0NeID3Su0TXLTV-67" style="edgeStyle=orthogonalEdgeStyle;rounded=0;orthogonalLoop=1;jettySize=auto;html=1;exitX=1;exitY=0.5;exitDx=0;exitDy=0;entryX=1;entryY=0.5;entryDx=0;entryDy=0;strokeWidth=2;strokeColor=#FF0000;" parent="1" source="XNHBsryC9wTqJ5zWwKcx-103" target="XNHBsryC9wTqJ5zWwKcx-44" edge="1">
          <mxGeometry relative="1" as="geometry">
            <Array as="points">
              <mxPoint x="188" y="1130" />
              <mxPoint x="188" y="1250" />
            </Array>
          </mxGeometry>
        </mxCell>
        <mxCell id="ekKz0f0NeID3Su0TXLTV-78" style="edgeStyle=orthogonalEdgeStyle;rounded=0;orthogonalLoop=1;jettySize=auto;html=1;exitX=1;exitY=0.75;exitDx=0;exitDy=0;strokeWidth=2;" parent="1" source="XNHBsryC9wTqJ5zWwKcx-103" target="XNHBsryC9wTqJ5zWwKcx-44" edge="1">
          <mxGeometry relative="1" as="geometry">
            <Array as="points">
              <mxPoint x="168" y="1140" />
              <mxPoint x="168" y="1250" />
            </Array>
          </mxGeometry>
        </mxCell>
        <mxCell id="XNHBsryC9wTqJ5zWwKcx-103" value="MG995R" style="rounded=1;whiteSpace=wrap;html=1;fontSize=14;align=center;flipV=0;flipH=0;direction=east;" parent="1" vertex="1">
          <mxGeometry x="68" y="1110" width="80" height="40" as="geometry" />
        </mxCell>
        <mxCell id="ekKz0f0NeID3Su0TXLTV-50" style="edgeStyle=orthogonalEdgeStyle;rounded=0;orthogonalLoop=1;jettySize=auto;html=1;exitX=1;exitY=0.75;exitDx=0;exitDy=0;entryX=1;entryY=0.25;entryDx=0;entryDy=0;strokeWidth=2;" parent="1" source="XNHBsryC9wTqJ5zWwKcx-104" target="XNHBsryC9wTqJ5zWwKcx-44" edge="1">
          <mxGeometry relative="1" as="geometry" />
        </mxCell>
        <mxCell id="ekKz0f0NeID3Su0TXLTV-56" style="edgeStyle=orthogonalEdgeStyle;rounded=0;orthogonalLoop=1;jettySize=auto;html=1;exitX=1;exitY=0.25;exitDx=0;exitDy=0;entryX=1;entryY=0.75;entryDx=0;entryDy=0;strokeWidth=2;strokeColor=#CCCC00;" parent="1" source="XNHBsryC9wTqJ5zWwKcx-104" target="XNHBsryC9wTqJ5zWwKcx-44" edge="1">
          <mxGeometry relative="1" as="geometry">
            <Array as="points">
              <mxPoint x="208" y="1280" />
              <mxPoint x="208" y="1200" />
            </Array>
          </mxGeometry>
        </mxCell>
        <mxCell id="ekKz0f0NeID3Su0TXLTV-70" style="edgeStyle=orthogonalEdgeStyle;rounded=0;orthogonalLoop=1;jettySize=auto;html=1;exitX=1;exitY=0.5;exitDx=0;exitDy=0;strokeWidth=2;strokeColor=#FF0000;" parent="1" source="XNHBsryC9wTqJ5zWwKcx-104" target="XNHBsryC9wTqJ5zWwKcx-44" edge="1">
          <mxGeometry relative="1" as="geometry">
            <Array as="points">
              <mxPoint x="188" y="1290" />
              <mxPoint x="188" y="1250" />
            </Array>
          </mxGeometry>
        </mxCell>
        <mxCell id="XNHBsryC9wTqJ5zWwKcx-104" value="MG995R" style="rounded=1;whiteSpace=wrap;html=1;fontSize=14;align=center;flipV=0;flipH=0;direction=east;" parent="1" vertex="1">
          <mxGeometry x="68" y="1270" width="80" height="40" as="geometry" />
        </mxCell>
        <mxCell id="ekKz0f0NeID3Su0TXLTV-48" style="edgeStyle=orthogonalEdgeStyle;rounded=0;orthogonalLoop=1;jettySize=auto;html=1;exitX=1;exitY=0.5;exitDx=0;exitDy=0;strokeWidth=2;strokeColor=#FF0000;" parent="1" source="XNHBsryC9wTqJ5zWwKcx-105" target="XNHBsryC9wTqJ5zWwKcx-44" edge="1">
          <mxGeometry relative="1" as="geometry" />
        </mxCell>
        <mxCell id="ekKz0f0NeID3Su0TXLTV-55" style="edgeStyle=orthogonalEdgeStyle;rounded=0;orthogonalLoop=1;jettySize=auto;html=1;exitX=1;exitY=0.25;exitDx=0;exitDy=0;entryX=1;entryY=0.75;entryDx=0;entryDy=0;strokeWidth=2;strokeColor=#CCCC00;" parent="1" source="XNHBsryC9wTqJ5zWwKcx-105" target="XNHBsryC9wTqJ5zWwKcx-44" edge="1">
          <mxGeometry relative="1" as="geometry">
            <Array as="points">
              <mxPoint x="208" y="1240" />
              <mxPoint x="208" y="1200" />
            </Array>
          </mxGeometry>
        </mxCell>
        <mxCell id="ekKz0f0NeID3Su0TXLTV-88" style="edgeStyle=orthogonalEdgeStyle;rounded=0;orthogonalLoop=1;jettySize=auto;html=1;exitX=1;exitY=0.75;exitDx=0;exitDy=0;entryX=1;entryY=0.25;entryDx=0;entryDy=0;strokeWidth=2;" parent="1" source="XNHBsryC9wTqJ5zWwKcx-105" target="XNHBsryC9wTqJ5zWwKcx-44" edge="1">
          <mxGeometry relative="1" as="geometry">
            <Array as="points">
              <mxPoint x="168" y="1260" />
              <mxPoint x="168" y="1300" />
            </Array>
          </mxGeometry>
        </mxCell>
        <mxCell id="XNHBsryC9wTqJ5zWwKcx-105" value="MG995R" style="rounded=1;whiteSpace=wrap;html=1;fontSize=14;align=center;flipV=0;flipH=0;direction=east;" parent="1" vertex="1">
          <mxGeometry x="68" y="1230" width="80" height="40" as="geometry" />
        </mxCell>
        <mxCell id="ekKz0f0NeID3Su0TXLTV-47" style="edgeStyle=orthogonalEdgeStyle;rounded=0;orthogonalLoop=1;jettySize=auto;html=1;exitX=1;exitY=0.25;exitDx=0;exitDy=0;entryX=1;entryY=0.75;entryDx=0;entryDy=0;strokeWidth=2;strokeColor=#CCCC00;" parent="1" source="XNHBsryC9wTqJ5zWwKcx-106" target="XNHBsryC9wTqJ5zWwKcx-44" edge="1">
          <mxGeometry relative="1" as="geometry" />
        </mxCell>
        <mxCell id="ekKz0f0NeID3Su0TXLTV-69" style="edgeStyle=orthogonalEdgeStyle;rounded=0;orthogonalLoop=1;jettySize=auto;html=1;exitX=1;exitY=0.5;exitDx=0;exitDy=0;strokeWidth=2;strokeColor=#FF0000;" parent="1" source="XNHBsryC9wTqJ5zWwKcx-106" target="XNHBsryC9wTqJ5zWwKcx-44" edge="1">
          <mxGeometry relative="1" as="geometry">
            <Array as="points">
              <mxPoint x="188" y="1210" />
              <mxPoint x="188" y="1250" />
            </Array>
          </mxGeometry>
        </mxCell>
        <mxCell id="ekKz0f0NeID3Su0TXLTV-80" style="edgeStyle=orthogonalEdgeStyle;rounded=0;orthogonalLoop=1;jettySize=auto;html=1;exitX=1;exitY=0.75;exitDx=0;exitDy=0;strokeWidth=2;" parent="1" source="XNHBsryC9wTqJ5zWwKcx-106" target="XNHBsryC9wTqJ5zWwKcx-44" edge="1">
          <mxGeometry relative="1" as="geometry">
            <Array as="points">
              <mxPoint x="168" y="1220" />
              <mxPoint x="168" y="1300" />
            </Array>
          </mxGeometry>
        </mxCell>
        <mxCell id="XNHBsryC9wTqJ5zWwKcx-106" value="MG995R" style="rounded=1;whiteSpace=wrap;html=1;fontSize=14;align=center;flipV=0;flipH=0;direction=east;" parent="1" vertex="1">
          <mxGeometry x="68" y="1190" width="80" height="40" as="geometry" />
        </mxCell>
        <mxCell id="ekKz0f0NeID3Su0TXLTV-54" style="edgeStyle=orthogonalEdgeStyle;rounded=0;orthogonalLoop=1;jettySize=auto;html=1;exitX=1;exitY=0.25;exitDx=0;exitDy=0;entryX=1;entryY=0.75;entryDx=0;entryDy=0;strokeWidth=2;strokeColor=#CCCC00;" parent="1" source="XNHBsryC9wTqJ5zWwKcx-107" target="XNHBsryC9wTqJ5zWwKcx-44" edge="1">
          <mxGeometry relative="1" as="geometry">
            <Array as="points">
              <mxPoint x="208" y="1160" />
              <mxPoint x="208" y="1200" />
            </Array>
          </mxGeometry>
        </mxCell>
        <mxCell id="ekKz0f0NeID3Su0TXLTV-68" style="edgeStyle=orthogonalEdgeStyle;rounded=0;orthogonalLoop=1;jettySize=auto;html=1;exitX=1;exitY=0.5;exitDx=0;exitDy=0;strokeWidth=2;strokeColor=#FF0000;" parent="1" source="XNHBsryC9wTqJ5zWwKcx-107" target="XNHBsryC9wTqJ5zWwKcx-44" edge="1">
          <mxGeometry relative="1" as="geometry">
            <Array as="points">
              <mxPoint x="188" y="1170" />
              <mxPoint x="188" y="1250" />
            </Array>
          </mxGeometry>
        </mxCell>
        <mxCell id="ekKz0f0NeID3Su0TXLTV-79" style="edgeStyle=orthogonalEdgeStyle;rounded=0;orthogonalLoop=1;jettySize=auto;html=1;exitX=1;exitY=0.75;exitDx=0;exitDy=0;strokeWidth=2;" parent="1" source="XNHBsryC9wTqJ5zWwKcx-107" target="XNHBsryC9wTqJ5zWwKcx-44" edge="1">
          <mxGeometry relative="1" as="geometry">
            <Array as="points">
              <mxPoint x="168" y="1180" />
              <mxPoint x="168" y="1300" />
            </Array>
          </mxGeometry>
        </mxCell>
        <mxCell id="XNHBsryC9wTqJ5zWwKcx-107" value="MG995R" style="rounded=1;whiteSpace=wrap;html=1;fontSize=14;align=center;flipV=0;flipH=0;direction=east;" parent="1" vertex="1">
          <mxGeometry x="68" y="1150" width="80" height="40" as="geometry" />
        </mxCell>
        <mxCell id="ekKz0f0NeID3Su0TXLTV-63" style="edgeStyle=orthogonalEdgeStyle;rounded=0;orthogonalLoop=1;jettySize=auto;html=1;exitX=1;exitY=0.25;exitDx=0;exitDy=0;entryX=1;entryY=0.75;entryDx=0;entryDy=0;strokeWidth=2;strokeColor=#CCCC00;" parent="1" source="XNHBsryC9wTqJ5zWwKcx-108" target="XNHBsryC9wTqJ5zWwKcx-44" edge="1">
          <mxGeometry relative="1" as="geometry">
            <Array as="points">
              <mxPoint x="208" y="1360" />
              <mxPoint x="208" y="1200" />
            </Array>
          </mxGeometry>
        </mxCell>
        <mxCell id="ekKz0f0NeID3Su0TXLTV-72" style="edgeStyle=orthogonalEdgeStyle;rounded=0;orthogonalLoop=1;jettySize=auto;html=1;exitX=1;exitY=0.5;exitDx=0;exitDy=0;strokeWidth=2;strokeColor=#FF0000;" parent="1" source="XNHBsryC9wTqJ5zWwKcx-108" target="XNHBsryC9wTqJ5zWwKcx-44" edge="1">
          <mxGeometry relative="1" as="geometry">
            <Array as="points">
              <mxPoint x="188" y="1370" />
              <mxPoint x="188" y="1250" />
            </Array>
          </mxGeometry>
        </mxCell>
        <mxCell id="ekKz0f0NeID3Su0TXLTV-89" style="edgeStyle=orthogonalEdgeStyle;rounded=0;orthogonalLoop=1;jettySize=auto;html=1;exitX=1;exitY=0.75;exitDx=0;exitDy=0;entryX=1;entryY=0.25;entryDx=0;entryDy=0;strokeWidth=2;" parent="1" source="XNHBsryC9wTqJ5zWwKcx-108" target="XNHBsryC9wTqJ5zWwKcx-44" edge="1">
          <mxGeometry relative="1" as="geometry">
            <Array as="points">
              <mxPoint x="168" y="1380" />
              <mxPoint x="168" y="1300" />
            </Array>
          </mxGeometry>
        </mxCell>
        <mxCell id="XNHBsryC9wTqJ5zWwKcx-108" value="MG995R" style="rounded=1;whiteSpace=wrap;html=1;fontSize=14;align=center;flipV=0;flipH=0;direction=east;" parent="1" vertex="1">
          <mxGeometry x="68" y="1350" width="80" height="40" as="geometry" />
        </mxCell>
        <mxCell id="ekKz0f0NeID3Su0TXLTV-59" style="edgeStyle=orthogonalEdgeStyle;rounded=0;orthogonalLoop=1;jettySize=auto;html=1;exitX=1;exitY=0.25;exitDx=0;exitDy=0;entryX=1;entryY=0.75;entryDx=0;entryDy=0;strokeWidth=2;strokeColor=#CCCC00;" parent="1" source="XNHBsryC9wTqJ5zWwKcx-109" target="XNHBsryC9wTqJ5zWwKcx-44" edge="1">
          <mxGeometry relative="1" as="geometry">
            <Array as="points">
              <mxPoint x="208" y="1400" />
              <mxPoint x="208" y="1200" />
            </Array>
          </mxGeometry>
        </mxCell>
        <mxCell id="ekKz0f0NeID3Su0TXLTV-73" style="edgeStyle=orthogonalEdgeStyle;rounded=0;orthogonalLoop=1;jettySize=auto;html=1;exitX=1;exitY=0.5;exitDx=0;exitDy=0;entryX=1;entryY=0.5;entryDx=0;entryDy=0;strokeWidth=2;strokeColor=#FF0000;" parent="1" source="XNHBsryC9wTqJ5zWwKcx-109" target="XNHBsryC9wTqJ5zWwKcx-44" edge="1">
          <mxGeometry relative="1" as="geometry">
            <Array as="points">
              <mxPoint x="188" y="1410" />
              <mxPoint x="188" y="1250" />
            </Array>
          </mxGeometry>
        </mxCell>
        <mxCell id="ekKz0f0NeID3Su0TXLTV-84" style="edgeStyle=orthogonalEdgeStyle;rounded=0;orthogonalLoop=1;jettySize=auto;html=1;exitX=1;exitY=0.75;exitDx=0;exitDy=0;entryX=1;entryY=0.25;entryDx=0;entryDy=0;strokeWidth=2;" parent="1" source="XNHBsryC9wTqJ5zWwKcx-109" target="XNHBsryC9wTqJ5zWwKcx-44" edge="1">
          <mxGeometry relative="1" as="geometry">
            <Array as="points">
              <mxPoint x="168" y="1420" />
              <mxPoint x="168" y="1300" />
            </Array>
          </mxGeometry>
        </mxCell>
        <mxCell id="XNHBsryC9wTqJ5zWwKcx-109" value="MG995R" style="rounded=1;whiteSpace=wrap;html=1;fontSize=14;align=center;flipV=0;flipH=0;direction=east;" parent="1" vertex="1">
          <mxGeometry x="68" y="1390" width="80" height="40" as="geometry" />
        </mxCell>
        <mxCell id="ekKz0f0NeID3Su0TXLTV-62" style="edgeStyle=orthogonalEdgeStyle;rounded=0;orthogonalLoop=1;jettySize=auto;html=1;exitX=1;exitY=0.25;exitDx=0;exitDy=0;entryX=1;entryY=0.75;entryDx=0;entryDy=0;strokeWidth=2;strokeColor=#CCCC00;" parent="1" source="ekKz0f0NeID3Su0TXLTV-1" target="XNHBsryC9wTqJ5zWwKcx-44" edge="1">
          <mxGeometry relative="1" as="geometry">
            <Array as="points">
              <mxPoint x="208" y="1440" />
              <mxPoint x="208" y="1200" />
            </Array>
          </mxGeometry>
        </mxCell>
        <mxCell id="ekKz0f0NeID3Su0TXLTV-74" style="edgeStyle=orthogonalEdgeStyle;rounded=0;orthogonalLoop=1;jettySize=auto;html=1;exitX=1;exitY=0.5;exitDx=0;exitDy=0;entryX=1;entryY=0.5;entryDx=0;entryDy=0;strokeWidth=2;strokeColor=#FF0000;" parent="1" source="ekKz0f0NeID3Su0TXLTV-1" target="XNHBsryC9wTqJ5zWwKcx-44" edge="1">
          <mxGeometry relative="1" as="geometry">
            <Array as="points">
              <mxPoint x="188" y="1450" />
              <mxPoint x="188" y="1250" />
            </Array>
          </mxGeometry>
        </mxCell>
        <mxCell id="ekKz0f0NeID3Su0TXLTV-85" style="edgeStyle=orthogonalEdgeStyle;rounded=0;orthogonalLoop=1;jettySize=auto;html=1;exitX=1;exitY=0.75;exitDx=0;exitDy=0;entryX=1;entryY=0.25;entryDx=0;entryDy=0;strokeWidth=2;" parent="1" source="ekKz0f0NeID3Su0TXLTV-1" target="XNHBsryC9wTqJ5zWwKcx-44" edge="1">
          <mxGeometry relative="1" as="geometry">
            <Array as="points">
              <mxPoint x="168" y="1460" />
              <mxPoint x="168" y="1300" />
            </Array>
          </mxGeometry>
        </mxCell>
        <mxCell id="ekKz0f0NeID3Su0TXLTV-1" value="MG995R" style="rounded=1;whiteSpace=wrap;html=1;fontSize=14;align=center;flipV=0;flipH=0;direction=east;" parent="1" vertex="1">
          <mxGeometry x="68" y="1430" width="80" height="40" as="geometry" />
        </mxCell>
        <mxCell id="ekKz0f0NeID3Su0TXLTV-65" style="edgeStyle=orthogonalEdgeStyle;rounded=0;orthogonalLoop=1;jettySize=auto;html=1;exitX=1;exitY=0.25;exitDx=0;exitDy=0;entryX=1;entryY=0.75;entryDx=0;entryDy=0;strokeWidth=2;strokeColor=#CCCC00;" parent="1" source="ekKz0f0NeID3Su0TXLTV-2" target="XNHBsryC9wTqJ5zWwKcx-44" edge="1">
          <mxGeometry relative="1" as="geometry">
            <Array as="points">
              <mxPoint x="208" y="1520" />
              <mxPoint x="208" y="1200" />
            </Array>
          </mxGeometry>
        </mxCell>
        <mxCell id="ekKz0f0NeID3Su0TXLTV-76" style="edgeStyle=orthogonalEdgeStyle;rounded=0;orthogonalLoop=1;jettySize=auto;html=1;exitX=1;exitY=0.5;exitDx=0;exitDy=0;entryX=1;entryY=0.5;entryDx=0;entryDy=0;strokeWidth=2;strokeColor=#FF0000;" parent="1" source="ekKz0f0NeID3Su0TXLTV-2" target="XNHBsryC9wTqJ5zWwKcx-44" edge="1">
          <mxGeometry relative="1" as="geometry">
            <Array as="points">
              <mxPoint x="188" y="1530" />
              <mxPoint x="188" y="1250" />
            </Array>
          </mxGeometry>
        </mxCell>
        <mxCell id="ekKz0f0NeID3Su0TXLTV-87" style="edgeStyle=orthogonalEdgeStyle;rounded=0;orthogonalLoop=1;jettySize=auto;html=1;exitX=1;exitY=0.75;exitDx=0;exitDy=0;entryX=1;entryY=0.25;entryDx=0;entryDy=0;strokeWidth=2;" parent="1" source="ekKz0f0NeID3Su0TXLTV-2" target="XNHBsryC9wTqJ5zWwKcx-44" edge="1">
          <mxGeometry relative="1" as="geometry">
            <Array as="points">
              <mxPoint x="168" y="1540" />
              <mxPoint x="168" y="1300" />
            </Array>
          </mxGeometry>
        </mxCell>
        <mxCell id="ekKz0f0NeID3Su0TXLTV-2" value="MG995R" style="rounded=1;whiteSpace=wrap;html=1;fontSize=14;align=center;flipV=0;flipH=0;direction=east;" parent="1" vertex="1">
          <mxGeometry x="68" y="1510" width="80" height="40" as="geometry" />
        </mxCell>
        <mxCell id="ekKz0f0NeID3Su0TXLTV-64" style="edgeStyle=orthogonalEdgeStyle;rounded=0;orthogonalLoop=1;jettySize=auto;html=1;exitX=1;exitY=0.25;exitDx=0;exitDy=0;entryX=1;entryY=0.75;entryDx=0;entryDy=0;strokeWidth=2;strokeColor=#CCCC00;" parent="1" source="ekKz0f0NeID3Su0TXLTV-3" target="XNHBsryC9wTqJ5zWwKcx-44" edge="1">
          <mxGeometry relative="1" as="geometry">
            <Array as="points">
              <mxPoint x="208" y="1480" />
              <mxPoint x="208" y="1200" />
            </Array>
          </mxGeometry>
        </mxCell>
        <mxCell id="ekKz0f0NeID3Su0TXLTV-75" style="edgeStyle=orthogonalEdgeStyle;rounded=0;orthogonalLoop=1;jettySize=auto;html=1;exitX=1;exitY=0.5;exitDx=0;exitDy=0;entryX=1;entryY=0.5;entryDx=0;entryDy=0;strokeWidth=2;strokeColor=#FF0000;" parent="1" source="ekKz0f0NeID3Su0TXLTV-3" target="XNHBsryC9wTqJ5zWwKcx-44" edge="1">
          <mxGeometry relative="1" as="geometry">
            <Array as="points">
              <mxPoint x="188" y="1490" />
              <mxPoint x="188" y="1250" />
            </Array>
          </mxGeometry>
        </mxCell>
        <mxCell id="ekKz0f0NeID3Su0TXLTV-86" style="edgeStyle=orthogonalEdgeStyle;rounded=0;orthogonalLoop=1;jettySize=auto;html=1;exitX=1;exitY=0.75;exitDx=0;exitDy=0;entryX=1;entryY=0.25;entryDx=0;entryDy=0;strokeWidth=2;" parent="1" source="ekKz0f0NeID3Su0TXLTV-3" target="XNHBsryC9wTqJ5zWwKcx-44" edge="1">
          <mxGeometry relative="1" as="geometry">
            <Array as="points">
              <mxPoint x="168" y="1500" />
              <mxPoint x="168" y="1300" />
            </Array>
          </mxGeometry>
        </mxCell>
        <mxCell id="ekKz0f0NeID3Su0TXLTV-3" value="MG995R" style="rounded=1;whiteSpace=wrap;html=1;fontSize=14;align=center;flipV=0;flipH=0;direction=east;" parent="1" vertex="1">
          <mxGeometry x="68" y="1470" width="80" height="40" as="geometry" />
        </mxCell>
        <mxCell id="ekKz0f0NeID3Su0TXLTV-182" style="edgeStyle=orthogonalEdgeStyle;rounded=0;orthogonalLoop=1;jettySize=auto;html=1;exitX=0.5;exitY=1;exitDx=0;exitDy=0;entryX=0;entryY=0.5;entryDx=0;entryDy=0;strokeWidth=2;strokeColor=#666666;" parent="1" source="ekKz0f0NeID3Su0TXLTV-97" target="ekKz0f0NeID3Su0TXLTV-168" edge="1">
          <mxGeometry relative="1" as="geometry" />
        </mxCell>
        <mxCell id="ekKz0f0NeID3Su0TXLTV-97" value="SDA" style="rounded=0;whiteSpace=wrap;html=1;fontSize=14;align=center;flipH=1;" parent="1" vertex="1">
          <mxGeometry x="344" y="1430" width="34" height="24" as="geometry" />
        </mxCell>
        <mxCell id="ekKz0f0NeID3Su0TXLTV-215" style="edgeStyle=orthogonalEdgeStyle;rounded=0;orthogonalLoop=1;jettySize=auto;html=1;exitX=0.5;exitY=1;exitDx=0;exitDy=0;entryX=0;entryY=0.5;entryDx=0;entryDy=0;strokeWidth=2;fillColor=#dae8fc;strokeColor=#6c8ebf;" parent="1" source="ekKz0f0NeID3Su0TXLTV-106" target="ekKz0f0NeID3Su0TXLTV-214" edge="1">
          <mxGeometry relative="1" as="geometry" />
        </mxCell>
        <mxCell id="ekKz0f0NeID3Su0TXLTV-106" value="SCL" style="rounded=0;whiteSpace=wrap;html=1;fontSize=14;align=center;flipH=1;" parent="1" vertex="1">
          <mxGeometry x="378" y="1430" width="34" height="24" as="geometry" />
        </mxCell>
        <mxCell id="ekKz0f0NeID3Su0TXLTV-181" style="edgeStyle=orthogonalEdgeStyle;rounded=0;orthogonalLoop=1;jettySize=auto;html=1;exitX=0.5;exitY=1;exitDx=0;exitDy=0;entryX=0;entryY=0.75;entryDx=0;entryDy=0;strokeWidth=2;strokeColor=#FF99FF;" parent="1" source="ekKz0f0NeID3Su0TXLTV-107" target="ekKz0f0NeID3Su0TXLTV-167" edge="1">
          <mxGeometry relative="1" as="geometry" />
        </mxCell>
        <mxCell id="ekKz0f0NeID3Su0TXLTV-107" value="3.3v" style="rounded=0;whiteSpace=wrap;html=1;fontSize=14;align=center;flipH=1;" parent="1" vertex="1">
          <mxGeometry x="310" y="1430" width="34" height="24" as="geometry" />
        </mxCell>
        <mxCell id="ekKz0f0NeID3Su0TXLTV-184" style="edgeStyle=orthogonalEdgeStyle;rounded=0;orthogonalLoop=1;jettySize=auto;html=1;exitX=0.5;exitY=1;exitDx=0;exitDy=0;entryX=0;entryY=0.5;entryDx=0;entryDy=0;strokeWidth=2;" parent="1" source="ekKz0f0NeID3Su0TXLTV-108" target="ekKz0f0NeID3Su0TXLTV-171" edge="1">
          <mxGeometry relative="1" as="geometry" />
        </mxCell>
        <mxCell id="ekKz0f0NeID3Su0TXLTV-108" value="GND" style="rounded=0;whiteSpace=wrap;html=1;fontSize=14;align=center;flipH=1;" parent="1" vertex="1">
          <mxGeometry x="412" y="1430" width="34" height="24" as="geometry" />
        </mxCell>
        <mxCell id="ekKz0f0NeID3Su0TXLTV-116" value="DC-DC 6V&lt;br&gt;&lt;font style=&quot;font-size: 12px;&quot;&gt;LM2596S With LED Display&lt;/font&gt;" style="rounded=1;whiteSpace=wrap;html=1;fontSize=14;align=center;" parent="1" vertex="1">
          <mxGeometry x="322.5" y="895" width="80" height="80" as="geometry" />
        </mxCell>
        <mxCell id="ekKz0f0NeID3Su0TXLTV-141" style="edgeStyle=orthogonalEdgeStyle;rounded=0;orthogonalLoop=1;jettySize=auto;html=1;exitX=0.25;exitY=1;exitDx=0;exitDy=0;entryX=0.25;entryY=0;entryDx=0;entryDy=0;strokeWidth=2;strokeColor=#FF0000;" parent="1" source="ekKz0f0NeID3Su0TXLTV-121" target="ekKz0f0NeID3Su0TXLTV-123" edge="1">
          <mxGeometry relative="1" as="geometry">
            <Array as="points">
              <mxPoint x="402.5" y="840" />
              <mxPoint x="402.5" y="868" />
              <mxPoint x="468.5" y="868" />
            </Array>
          </mxGeometry>
        </mxCell>
        <mxCell id="ekKz0f0NeID3Su0TXLTV-140" style="edgeStyle=orthogonalEdgeStyle;rounded=0;orthogonalLoop=1;jettySize=auto;html=1;exitX=0.25;exitY=1;exitDx=0;exitDy=0;entryX=0.25;entryY=0;entryDx=0;entryDy=0;strokeWidth=2;strokeColor=#FF0000;" parent="1" source="ekKz0f0NeID3Su0TXLTV-121" target="ekKz0f0NeID3Su0TXLTV-116" edge="1">
          <mxGeometry relative="1" as="geometry">
            <Array as="points">
              <mxPoint x="402.5" y="840" />
              <mxPoint x="402.5" y="868" />
              <mxPoint x="342.5" y="868" />
            </Array>
          </mxGeometry>
        </mxCell>
        <mxCell id="ekKz0f0NeID3Su0TXLTV-142" style="edgeStyle=orthogonalEdgeStyle;rounded=0;orthogonalLoop=1;jettySize=auto;html=1;exitX=0.75;exitY=1;exitDx=0;exitDy=0;entryX=0.75;entryY=0;entryDx=0;entryDy=0;strokeWidth=2;" parent="1" source="ekKz0f0NeID3Su0TXLTV-121" target="ekKz0f0NeID3Su0TXLTV-123" edge="1">
          <mxGeometry relative="1" as="geometry">
            <Array as="points">
              <mxPoint x="442.5" y="840" />
              <mxPoint x="442.5" y="855" />
              <mxPoint x="508.5" y="855" />
            </Array>
          </mxGeometry>
        </mxCell>
        <mxCell id="ekKz0f0NeID3Su0TXLTV-143" style="edgeStyle=orthogonalEdgeStyle;rounded=0;orthogonalLoop=1;jettySize=auto;html=1;exitX=0.75;exitY=1;exitDx=0;exitDy=0;entryX=0.75;entryY=0;entryDx=0;entryDy=0;strokeWidth=2;" parent="1" source="ekKz0f0NeID3Su0TXLTV-121" target="ekKz0f0NeID3Su0TXLTV-116" edge="1">
          <mxGeometry relative="1" as="geometry">
            <Array as="points">
              <mxPoint x="442.5" y="840" />
              <mxPoint x="442.5" y="855" />
              <mxPoint x="382.5" y="855" />
            </Array>
          </mxGeometry>
        </mxCell>
        <mxCell id="ekKz0f0NeID3Su0TXLTV-121" value="LIPO Battery 11.1V 1800mAh LB-12 5C" style="rounded=1;whiteSpace=wrap;html=1;fontSize=14;align=center;" parent="1" vertex="1">
          <mxGeometry x="342.5" y="760" width="160" height="80" as="geometry" />
        </mxCell>
        <mxCell id="ekKz0f0NeID3Su0TXLTV-123" value="DC-DC 5V&lt;br&gt;&lt;font style=&quot;font-size: 12px;&quot;&gt;DC8A-1212CC CV&lt;/font&gt;" style="rounded=1;whiteSpace=wrap;html=1;fontSize=14;align=center;" parent="1" vertex="1">
          <mxGeometry x="448.5" y="895" width="80" height="80" as="geometry" />
        </mxCell>
        <mxCell id="ekKz0f0NeID3Su0TXLTV-147" value="&lt;font style=&quot;font-size: 16px;&quot;&gt;USB Cable&lt;/font&gt;" style="text;html=1;strokeColor=none;fillColor=none;align=center;verticalAlign=middle;whiteSpace=wrap;rounded=0;" parent="1" vertex="1">
          <mxGeometry x="540" y="1260" width="70" height="50" as="geometry" />
        </mxCell>
        <mxCell id="ekKz0f0NeID3Su0TXLTV-148" value="&lt;font style=&quot;font-size: 14px;&quot;&gt;YDLIDAR X4&lt;/font&gt;" style="ellipse;whiteSpace=wrap;html=1;aspect=fixed;" parent="1" vertex="1">
          <mxGeometry x="482.5" y="1025" width="105" height="105" as="geometry" />
        </mxCell>
        <mxCell id="ekKz0f0NeID3Su0TXLTV-150" value="&lt;font style=&quot;font-size: 14px;&quot;&gt;Intel RealSense Depth Camera D435i&amp;nbsp;&lt;/font&gt;" style="rounded=1;whiteSpace=wrap;html=1;" parent="1" vertex="1">
          <mxGeometry x="560" y="1150" width="160" height="80" as="geometry" />
        </mxCell>
        <mxCell id="ekKz0f0NeID3Su0TXLTV-162" style="edgeStyle=orthogonalEdgeStyle;rounded=0;orthogonalLoop=1;jettySize=auto;html=1;exitX=0.25;exitY=1;exitDx=0;exitDy=0;entryX=0.013;entryY=0.53;entryDx=0;entryDy=0;entryPerimeter=0;strokeWidth=2;strokeColor=#FF0000;" parent="1" source="ekKz0f0NeID3Su0TXLTV-116" target="XNHBsryC9wTqJ5zWwKcx-44" edge="1">
          <mxGeometry relative="1" as="geometry" />
        </mxCell>
        <mxCell id="ekKz0f0NeID3Su0TXLTV-163" style="edgeStyle=orthogonalEdgeStyle;rounded=0;orthogonalLoop=1;jettySize=auto;html=1;exitX=0.75;exitY=1;exitDx=0;exitDy=0;entryX=-0.012;entryY=0.465;entryDx=0;entryDy=0;entryPerimeter=0;strokeWidth=2;" parent="1" source="ekKz0f0NeID3Su0TXLTV-116" target="XNHBsryC9wTqJ5zWwKcx-44" edge="1">
          <mxGeometry relative="1" as="geometry">
            <Array as="points">
              <mxPoint x="383" y="1030" />
              <mxPoint x="430" y="1030" />
              <mxPoint x="430" y="1257" />
            </Array>
          </mxGeometry>
        </mxCell>
        <mxCell id="ekKz0f0NeID3Su0TXLTV-167" value="1" style="text;html=1;strokeColor=none;fillColor=none;align=center;verticalAlign=middle;whiteSpace=wrap;rounded=0;" parent="1" vertex="1">
          <mxGeometry x="488.5" y="1479" width="10" height="10" as="geometry" />
        </mxCell>
        <mxCell id="ekKz0f0NeID3Su0TXLTV-168" value="3" style="text;html=1;strokeColor=none;fillColor=none;align=center;verticalAlign=middle;whiteSpace=wrap;rounded=0;" parent="1" vertex="1">
          <mxGeometry x="488.5" y="1489" width="10" height="10" as="geometry" />
        </mxCell>
        <mxCell id="ekKz0f0NeID3Su0TXLTV-171" value="9" style="text;html=1;strokeColor=none;fillColor=none;align=center;verticalAlign=middle;whiteSpace=wrap;rounded=0;" parent="1" vertex="1">
          <mxGeometry x="488.5" y="1520" width="10" height="10" as="geometry" />
        </mxCell>
        <mxCell id="ekKz0f0NeID3Su0TXLTV-176" value="25" style="text;html=1;strokeColor=none;fillColor=none;align=center;verticalAlign=middle;whiteSpace=wrap;rounded=0;" parent="1" vertex="1">
          <mxGeometry x="488.5" y="1600" width="20" height="10" as="geometry" />
        </mxCell>
        <mxCell id="ekKz0f0NeID3Su0TXLTV-178" value="27" style="text;html=1;strokeColor=none;fillColor=none;align=center;verticalAlign=middle;whiteSpace=wrap;rounded=0;" parent="1" vertex="1">
          <mxGeometry x="488.5" y="1610" width="20" height="10" as="geometry" />
        </mxCell>
        <mxCell id="ekKz0f0NeID3Su0TXLTV-179" value="28" style="text;html=1;strokeColor=none;fillColor=none;align=center;verticalAlign=middle;whiteSpace=wrap;rounded=0;" parent="1" vertex="1">
          <mxGeometry x="508.5" y="1610" width="20" height="10" as="geometry" />
        </mxCell>
        <mxCell id="ekKz0f0NeID3Su0TXLTV-186" value="17" style="text;html=1;strokeColor=none;fillColor=none;align=center;verticalAlign=middle;whiteSpace=wrap;rounded=0;" parent="1" vertex="1">
          <mxGeometry x="488.5" y="1560" width="20" height="10" as="geometry" />
        </mxCell>
        <mxCell id="ekKz0f0NeID3Su0TXLTV-187" value="&lt;font style=&quot;font-size: 14px;&quot;&gt;MPU- 9250&lt;/font&gt;" style="rounded=0;whiteSpace=wrap;html=1;direction=south;" parent="1" vertex="1">
          <mxGeometry x="280" y="1570" width="60" height="120" as="geometry" />
        </mxCell>
        <mxCell id="ekKz0f0NeID3Su0TXLTV-204" style="edgeStyle=orthogonalEdgeStyle;rounded=0;orthogonalLoop=1;jettySize=auto;html=1;exitX=1;exitY=0.25;exitDx=0;exitDy=0;entryX=0;entryY=0.5;entryDx=0;entryDy=0;strokeWidth=2;strokeColor=#FF99FF;" parent="1" source="ekKz0f0NeID3Su0TXLTV-189" target="ekKz0f0NeID3Su0TXLTV-186" edge="1">
          <mxGeometry relative="1" as="geometry" />
        </mxCell>
        <mxCell id="ekKz0f0NeID3Su0TXLTV-189" value="3.3v" style="rounded=0;whiteSpace=wrap;html=1;fontSize=14;align=center;flipH=1;" parent="1" vertex="1">
          <mxGeometry x="340" y="1570" width="34" height="24" as="geometry" />
        </mxCell>
        <mxCell id="ekKz0f0NeID3Su0TXLTV-199" style="edgeStyle=orthogonalEdgeStyle;rounded=0;orthogonalLoop=1;jettySize=auto;html=1;exitX=1;exitY=0.5;exitDx=0;exitDy=0;entryX=0;entryY=0.5;entryDx=0;entryDy=0;strokeWidth=2;" parent="1" source="ekKz0f0NeID3Su0TXLTV-190" target="ekKz0f0NeID3Su0TXLTV-176" edge="1">
          <mxGeometry relative="1" as="geometry">
            <Array as="points">
              <mxPoint x="374" y="1605" />
            </Array>
          </mxGeometry>
        </mxCell>
        <mxCell id="ekKz0f0NeID3Su0TXLTV-190" value="GND" style="rounded=0;whiteSpace=wrap;html=1;fontSize=14;align=center;flipH=1;" parent="1" vertex="1">
          <mxGeometry x="340" y="1594" width="34" height="24" as="geometry" />
        </mxCell>
        <mxCell id="ekKz0f0NeID3Su0TXLTV-200" style="edgeStyle=orthogonalEdgeStyle;rounded=0;orthogonalLoop=1;jettySize=auto;html=1;exitX=1;exitY=0.5;exitDx=0;exitDy=0;entryX=0;entryY=0.5;entryDx=0;entryDy=0;strokeWidth=2;strokeColor=#666666;" parent="1" source="ekKz0f0NeID3Su0TXLTV-191" target="ekKz0f0NeID3Su0TXLTV-178" edge="1">
          <mxGeometry relative="1" as="geometry" />
        </mxCell>
        <mxCell id="ekKz0f0NeID3Su0TXLTV-191" value="SDA" style="rounded=0;whiteSpace=wrap;html=1;fontSize=14;align=center;flipH=1;" parent="1" vertex="1">
          <mxGeometry x="340" y="1640" width="34" height="24" as="geometry" />
        </mxCell>
        <mxCell id="ekKz0f0NeID3Su0TXLTV-201" style="edgeStyle=orthogonalEdgeStyle;rounded=0;orthogonalLoop=1;jettySize=auto;html=1;exitX=1;exitY=0.25;exitDx=0;exitDy=0;" parent="1" source="ekKz0f0NeID3Su0TXLTV-192" edge="1">
          <mxGeometry relative="1" as="geometry">
            <mxPoint x="374.16666666666674" y="1622.166666666667" as="targetPoint" />
          </mxGeometry>
        </mxCell>
        <mxCell id="ekKz0f0NeID3Su0TXLTV-203" style="edgeStyle=orthogonalEdgeStyle;rounded=0;orthogonalLoop=1;jettySize=auto;html=1;exitX=1;exitY=0.75;exitDx=0;exitDy=0;entryX=1;entryY=0.5;entryDx=0;entryDy=0;strokeWidth=2;fillColor=#dae8fc;strokeColor=#6c8ebf;" parent="1" source="ekKz0f0NeID3Su0TXLTV-192" target="ekKz0f0NeID3Su0TXLTV-179" edge="1">
          <mxGeometry relative="1" as="geometry">
            <Array as="points">
              <mxPoint x="549" y="1634" />
              <mxPoint x="549" y="1615" />
            </Array>
          </mxGeometry>
        </mxCell>
        <mxCell id="ekKz0f0NeID3Su0TXLTV-192" value="SCL" style="rounded=0;whiteSpace=wrap;html=1;fontSize=14;align=center;flipH=1;" parent="1" vertex="1">
          <mxGeometry x="340" y="1616" width="34" height="24" as="geometry" />
        </mxCell>
        <mxCell id="ekKz0f0NeID3Su0TXLTV-210" style="edgeStyle=orthogonalEdgeStyle;rounded=0;orthogonalLoop=1;jettySize=auto;html=1;exitX=0.5;exitY=0;exitDx=0;exitDy=0;entryX=0.38;entryY=0.996;entryDx=0;entryDy=0;entryPerimeter=0;strokeWidth=2;" parent="1" source="XNHBsryC9wTqJ5zWwKcx-45" target="ekKz0f0NeID3Su0TXLTV-150" edge="1">
          <mxGeometry relative="1" as="geometry" />
        </mxCell>
        <mxCell id="ekKz0f0NeID3Su0TXLTV-211" style="edgeStyle=orthogonalEdgeStyle;rounded=0;orthogonalLoop=1;jettySize=auto;html=1;exitX=1;exitY=0.75;exitDx=0;exitDy=0;entryX=0.831;entryY=0.007;entryDx=0;entryDy=0;entryPerimeter=0;strokeWidth=2;strokeColor=#FF0000;" parent="1" source="ekKz0f0NeID3Su0TXLTV-123" target="XNHBsryC9wTqJ5zWwKcx-45" edge="1">
          <mxGeometry relative="1" as="geometry">
            <Array as="points">
              <mxPoint x="730" y="955" />
              <mxPoint x="730" y="1350" />
              <mxPoint x="713" y="1350" />
            </Array>
          </mxGeometry>
        </mxCell>
        <mxCell id="ekKz0f0NeID3Su0TXLTV-213" style="edgeStyle=orthogonalEdgeStyle;rounded=0;orthogonalLoop=1;jettySize=auto;html=1;exitX=1;exitY=0.5;exitDx=0;exitDy=0;strokeWidth=2;entryX=0.849;entryY=0.004;entryDx=0;entryDy=0;entryPerimeter=0;" parent="1" source="ekKz0f0NeID3Su0TXLTV-123" target="XNHBsryC9wTqJ5zWwKcx-45" edge="1">
          <mxGeometry relative="1" as="geometry">
            <mxPoint x="720" y="1450" as="targetPoint" />
            <Array as="points">
              <mxPoint x="740" y="935" />
              <mxPoint x="740" y="1360" />
              <mxPoint x="718" y="1360" />
            </Array>
          </mxGeometry>
        </mxCell>
        <mxCell id="ekKz0f0NeID3Su0TXLTV-214" value="5" style="text;html=1;strokeColor=none;fillColor=none;align=center;verticalAlign=middle;whiteSpace=wrap;rounded=0;" parent="1" vertex="1">
          <mxGeometry x="488.5" y="1500" width="10" height="10" as="geometry" />
        </mxCell>
      </root>
    </mxGraphModel>
  </diagram>
</mxfile>
